<svg width="12" height="12" viewBox="0 0 12 12" fill="none" xmlns="http://www.w3.org/2000/svg">
<mask id="path-1-inside-1_40_2194" fill="white">
<path d="M0 6C0 2.68629 2.68629 0 6 0V0C9.31371 0 12 2.68629 12 6V6C12 9.31371 9.31371 12 6 12V12C2.68629 12 0 9.31371 0 6V6Z"/>
</mask>
<path d="M6 12V8C4.89543 8 4 7.10457 4 6H0H-4C-4 11.5228 0.477153 16 6 16V12ZM12 6H8C8 7.10457 7.10457 8 6 8V12V16C11.5228 16 16 11.5228 16 6H12ZM6 0V4C7.10457 4 8 4.89543 8 6H12H16C16 0.477153 11.5228 -4 6 -4V0ZM6 0V-4C0.477153 -4 -4 0.477153 -4 6H0H4C4 4.89543 4.89543 4 6 4V0Z" fill="#0C4DA2" mask="url(#path-1-inside-1_40_2194)"/>
</svg>
